<svg width="61" height="43" viewBox="0 0 61 43" fill="none" xmlns="http://www.w3.org/2000/svg">
<path d="M21.1395 1.58824C21.4103 1.94761 21.5763 2.36722 21.6374 2.84708C21.6379 3.02708 21.6233 3.20711 21.5937 3.38719C21.5941 3.53718 21.5794 3.68722 21.5498 3.83729C21.5205 4.16736 21.3263 4.48281 20.967 4.78366C20.7573 4.93415 20.4877 5.08478 20.158 5.23556C19.9782 5.29598 19.7833 5.34144 19.5734 5.37193C19.3934 5.37235 19.1834 5.38784 18.9435 5.4184C18.7636 5.47883 18.5687 5.50928 18.3587 5.50978C18.1487 5.51027 17.9387 5.51076 17.7287 5.51125L15.7037 5.516L6.29882 5.58306L6.29914 5.71806L6.27134 13.0531C6.51134 13.0526 6.76634 13.052 7.03634 13.0514C7.33634 13.0506 7.6963 13.0348 8.11623 13.0038C9.31623 13.001 10.3812 12.9985 11.3112 12.9963C12.2712 12.9941 13.3213 13.0066 14.4613 13.0339L14.7313 13.0333C15.0613 13.0325 15.3914 13.0468 15.7214 13.076C16.0814 13.0751 16.4414 13.0743 16.8014 13.0735C17.1315 13.1027 17.4616 13.1469 17.7917 13.2061C18.1218 13.2354 18.452 13.3096 18.7823 13.4288C19.3227 13.6075 19.7133 13.8916 19.9543 14.2811C20.2852 14.6703 20.4511 15.0749 20.4521 15.4949C20.4525 15.6749 20.4529 15.8549 20.4534 16.0349C20.4537 16.1849 20.4241 16.35 20.3645 16.5301C20.3351 16.7702 20.1408 17.0706 19.7816 17.4315C19.5421 17.642 19.2575 17.7777 18.9276 17.8385C18.7777 17.8988 18.5979 17.9592 18.388 18.0197C18.2081 18.0502 18.0132 18.0806 17.8032 18.1111C17.5933 18.1416 17.3834 18.1721 17.1734 18.2026C16.9934 18.203 16.7834 18.2035 16.5434 18.2041L14.4735 18.2089L6.19358 18.2733L6.08306 28.7136L6.08391 29.0736C6.08426 29.2236 6.06961 29.3737 6.03996 29.5237C6.04025 29.6437 6.02556 29.7788 5.99591 29.9288C5.93627 30.079 5.87665 30.2441 5.81708 30.4243C5.78743 30.5743 5.74278 30.7244 5.68313 30.8746C5.47412 31.2951 5.27979 31.5805 5.10014 31.7309C4.7707 31.9717 4.36609 32.1377 3.8863 32.2288C3.07673 32.4107 2.31152 32.3225 1.59068 31.9642C1.44047 31.8745 1.29022 31.7699 1.13994 31.6502C1.01959 31.5005 0.914165 31.3208 0.823673 31.111C0.763391 30.9911 0.733181 30.9012 0.73304 30.8412L0.597407 30.5715C0.507056 30.4217 0.446704 30.2719 0.416352 30.1219C0.38593 29.942 0.355543 29.7771 0.325192 29.6271C0.32484 29.4771 0.309488 29.3272 0.279136 29.1772C0.278785 29.0272 0.263433 28.8773 0.233081 28.7273C0.202518 28.4874 0.201955 28.2474 0.231393 28.0074L0.229704 27.2874L0.266472 23.7773L0.296276 17.2972C0.324024 16.3371 0.336738 15.3621 0.334416 14.3721C0.332094 13.3821 0.329702 12.3621 0.32724 11.3121C0.294707 10.2322 0.277456 9.27219 0.275486 8.43219C0.303516 7.59213 0.34637 6.67702 0.404048 5.68689L0.40352 5.46188C0.432746 5.13181 0.447043 4.83178 0.446409 4.56178C0.445706 4.26178 0.475002 3.96171 0.534299 3.66157C0.592751 3.00143 0.741378 2.41608 0.980182 1.90552C1.18898 1.39503 1.48814 1.03433 1.87765 0.823415C2.32701 0.55236 2.80669 0.416234 3.31669 0.415038C3.55669 0.414475 3.75173 0.429018 3.9018 0.458666L3.90169 0.413666C4.44169 0.4124 4.87669 0.41138 5.20669 0.410606C5.53669 0.409832 5.85169 0.409093 6.15169 0.40839C6.45168 0.407686 6.78168 0.406912 7.14168 0.406068C7.50161 0.375224 7.98157 0.3591 8.58157 0.357693C10.9815 0.322065 13.3515 0.316507 15.6916 0.341019L15.9166 0.340491C16.2466 0.369717 16.5767 0.383941 16.9067 0.383167C17.2667 0.382323 17.6267 0.396479 17.9868 0.425635C18.3168 0.424861 18.6469 0.469086 18.9771 0.558313C19.3072 0.617538 19.6374 0.706765 19.9677 0.825991C20.4781 0.974794 20.8686 1.22888 21.1395 1.58824Z" fill="url(#paint0_linear_1492_7869)"/>
<path d="M30.1551 28.4772C30.1255 28.6272 30.0958 28.7773 30.0662 28.9274C30.0665 29.0474 30.0668 29.1824 30.0671 29.3324L29.7993 30.278C29.7396 30.3982 29.6948 30.4733 29.6649 30.5033L29.5305 30.7736C29.3813 31.104 29.1119 31.3746 28.7224 31.5855C28.0032 31.9472 27.2385 32.039 26.428 31.8609C25.9179 31.8021 25.5126 31.6531 25.212 31.4138C24.9115 31.2045 24.7009 30.95 24.5802 30.6503C24.4595 30.3505 24.3688 30.0508 24.3081 29.7509C24.2174 29.4511 24.1717 29.1812 24.1712 28.9412L24.1121 3.74128C24.1116 3.53128 24.1112 3.35128 24.1108 3.20128C24.1404 3.02121 24.17 2.85614 24.1997 2.70607C24.2292 2.496 24.2587 2.31593 24.2884 2.16586C24.348 2.01572 24.4077 1.85058 24.4672 1.67044C24.5565 1.37023 24.721 1.12984 24.9605 0.949282C25.3199 0.678439 25.6646 0.527631 25.9945 0.496857C26.2043 0.436364 26.3993 0.405906 26.5793 0.405484C26.7592 0.375062 26.9692 0.359569 27.2092 0.359006C27.6292 0.358021 28.1094 0.476895 28.65 0.715629C29.0706 0.954644 29.3713 1.28394 29.5523 1.70352C29.8537 2.30281 30.005 2.85746 30.0062 3.36746C30.0369 3.66738 30.053 4.11735 30.0544 4.71735C30.0858 5.31727 30.1019 5.76724 30.1026 6.06724L30.103 6.24724C30.1652 7.20709 30.1974 8.13702 30.1995 9.03702C30.2016 9.90702 30.1888 10.8671 30.1613 11.9171C30.1637 12.9371 30.151 13.9271 30.1232 14.8872C30.1254 15.8172 30.1276 16.7472 30.1298 17.6772L30.152 27.1272C30.1522 27.2472 30.1525 27.3672 30.1528 27.4872C30.183 27.5771 30.1983 27.6821 30.1985 27.8021C30.1992 28.1021 30.1848 28.3271 30.1551 28.4772Z" fill="url(#paint1_linear_1492_7869)"/>
<path d="M38.9815 15.0014C38.9835 15.8414 38.9857 16.7864 38.9882 17.8364C39.0206 18.8864 39.0382 19.9813 39.0409 21.1213C39.0435 22.2313 39.0461 23.3413 39.0487 24.4513C39.0512 25.5313 39.0386 26.5363 39.0107 27.4664C38.9818 27.9165 38.938 28.4116 38.8792 28.9517C38.8204 29.4619 38.7015 29.9421 38.5226 30.3926C38.3437 30.843 38.0595 31.2186 37.6702 31.5196C37.3109 31.7904 36.8162 31.9116 36.1861 31.883C35.256 31.8252 34.58 31.4218 34.1582 30.6728C33.7665 29.9237 33.539 28.8742 33.4759 27.5244C33.4742 26.8344 33.4574 26.0394 33.4253 25.1395C33.4232 24.2395 33.406 23.3245 33.3738 22.3946C33.3716 21.4646 33.3695 20.5646 33.3675 19.6946C33.3654 18.7946 33.3635 17.9846 33.3618 17.2646C33.3608 16.8446 33.3446 16.3347 33.3132 15.7347C33.3118 15.1347 33.3254 14.5197 33.3539 13.8896C33.3824 13.2596 33.456 12.6594 33.5747 12.0891C33.6933 11.4888 33.8871 10.9934 34.1562 10.6027C34.3656 10.3623 34.6652 10.1815 35.0549 10.0606C35.4446 9.90972 35.8494 9.83377 36.2694 9.83279C36.7194 9.83173 37.1396 9.90575 37.5299 10.0548C37.9502 10.2038 38.2507 10.4131 38.4314 10.6827C38.5518 10.8624 38.6424 11.1172 38.7032 11.4471C38.7639 11.7769 38.8098 12.1518 38.8408 12.5718C38.9017 12.9616 38.9327 13.3815 38.9338 13.8315C38.9647 14.2515 38.9807 14.6414 38.9815 15.0014ZM37.2502 5.91548C36.3208 6.15766 35.5406 6.06948 34.9096 5.65096C34.3085 5.20237 33.932 4.54325 33.7799 3.67361C33.6585 3.04389 33.7021 2.48879 33.911 2.00829C34.1199 1.5278 34.4341 1.16707 34.8535 0.926082C35.2728 0.655097 35.7526 0.533972 36.2926 0.562705C36.8327 0.591438 37.3732 0.80017 37.9141 1.1889C38.425 1.54771 38.7859 1.96686 38.9971 2.44637C39.2382 2.9258 39.3143 3.39063 39.2253 3.84084C39.1664 4.29098 38.9724 4.71143 38.6433 5.1022C38.3141 5.46298 37.8498 5.73407 37.2502 5.91548Z" fill="url(#paint2_linear_1492_7869)"/>
<path d="M55.033 11.7688C55.9038 12.1267 56.7001 12.6499 57.4217 13.3382C58.1432 13.9965 58.76 14.7601 59.2721 15.6289C59.8141 16.4976 60.2213 17.4416 60.4937 18.461C60.796 19.4503 60.9484 20.4549 60.9508 21.4749C60.9844 23.0049 60.6277 24.4457 59.8809 25.7975C59.1641 27.1491 57.9815 28.1869 56.3332 28.9108C55.0744 29.4237 53.7703 29.8168 52.421 30.09C51.1015 30.3331 49.7219 30.5013 48.2821 30.5947L48.3014 38.8297C48.3019 39.0097 48.2722 39.1747 48.2126 39.3249C48.183 39.4749 48.1683 39.625 48.1687 39.775C48.1094 40.0751 48.035 40.3453 47.9456 40.5855C47.8861 40.8256 47.7967 41.0808 47.6773 41.3511C47.5578 41.5314 47.4382 41.6967 47.3185 41.847C47.1989 41.9972 47.0642 42.1476 46.9146 42.2979C46.1954 42.6596 45.4456 42.7364 44.6651 42.5282C44.185 42.4993 43.7947 42.3502 43.494 42.0809C43.2234 41.8116 43.0277 41.527 42.907 41.2273C42.7863 40.9276 42.6805 40.5828 42.5896 40.193C42.5593 40.0431 42.5289 39.8932 42.4986 39.7433C42.4983 39.6233 42.498 39.4883 42.4976 39.3383L42.4388 14.2733C42.4384 14.0933 42.438 13.9133 42.4376 13.7333C42.4671 13.5233 42.4966 13.3132 42.5261 13.1031C42.5552 12.7431 42.6444 12.3828 42.7936 12.0225C43.0618 11.2719 43.6156 10.7606 44.455 10.4886C45.2943 10.2166 46.239 10.0944 47.2891 10.1219C48.0092 10.1503 48.7444 10.2235 49.4946 10.3418C50.2749 10.4599 51.0103 10.6082 51.7007 10.7866C52.421 10.9349 53.0664 11.0984 53.6368 11.2771C54.2073 11.4557 54.6726 11.6196 55.033 11.7688ZM55.1458 21.4886C55.2638 20.6483 55.1572 19.9435 54.8258 19.3743C54.5244 18.775 54.0883 18.296 53.5175 17.9374C52.9465 17.5487 52.2858 17.2502 51.5354 17.042C50.8149 16.8337 50.0945 16.6854 49.3743 16.5971C49.2842 16.5673 49.1342 16.5526 48.9242 16.5531C48.7442 16.5535 48.5342 16.554 48.2942 16.5546C48.2965 17.5146 48.2986 18.4446 48.3007 19.3446C48.3328 20.2145 48.335 21.1595 48.3074 22.1796L48.3145 25.1946C49.0044 25.163 49.7242 25.0863 50.4739 24.9645C51.2536 24.8427 51.9732 24.646 52.6326 24.3745C53.2919 24.1029 53.8461 23.7416 54.295 23.2906C54.774 22.8394 55.0575 22.2388 55.1458 21.4886Z" fill="url(#paint3_linear_1492_7869)"/>
<defs>
<linearGradient id="paint0_linear_1492_7869" x1="-11.5504" y1="38.5367" x2="62.0107" y2="36.0379" gradientUnits="userSpaceOnUse">
<stop stop-color="#48D824"/>
<stop offset="1" stop-color="#10D0EA"/>
</linearGradient>
<linearGradient id="paint1_linear_1492_7869" x1="-11.5504" y1="38.5367" x2="62.0107" y2="36.0379" gradientUnits="userSpaceOnUse">
<stop stop-color="#48D824"/>
<stop offset="1" stop-color="#10D0EA"/>
</linearGradient>
<linearGradient id="paint2_linear_1492_7869" x1="-11.5504" y1="38.5367" x2="62.0107" y2="36.0379" gradientUnits="userSpaceOnUse">
<stop stop-color="#48D824"/>
<stop offset="1" stop-color="#10D0EA"/>
</linearGradient>
<linearGradient id="paint3_linear_1492_7869" x1="-11.5504" y1="38.5367" x2="62.0107" y2="36.0379" gradientUnits="userSpaceOnUse">
<stop stop-color="#48D824"/>
<stop offset="1" stop-color="#10D0EA"/>
</linearGradient>
</defs>
</svg>